<svg xmlns="http://www.w3.org/2000/svg" width="166" height="32" fill="none"><path fill="#222" d="M30.771 9.851A16 16 0 1 1 15.994.001c2.116-.007 4.21.413 6.16 1.233a1.143 1.143 0 0 1 .617 1.497 1.143 1.143 0 0 1-1.497.606 13.714 13.714 0 1 0 7.383 7.383 1.143 1.143 0 0 1 2.114-.869Zm-9.062-5.28a3.428 3.428 0 0 0 3.428-3.428 1.143 1.143 0 1 1 2.286 0A3.428 3.428 0 0 0 30.85 4.57a1.143 1.143 0 1 1 0 2.286 3.428 3.428 0 0 0-3.428 3.429 1.143 1.143 0 0 1-2.286 0 3.428 3.428 0 0 0-3.428-3.429 1.143 1.143 0 0 1 0-2.286Zm3.428 1.143c.433.325.818.71 1.143 1.143.325-.433.71-.818 1.143-1.143a5.714 5.714 0 0 1-1.143-1.143c-.325.434-.71.818-1.143 1.143Zm0 10.286A9.143 9.143 0 1 1 6.85 16a9.143 9.143 0 0 1 18.287 0Zm-2.286 0a6.857 6.857 0 1 0-13.714 0 6.857 6.857 0 0 0 13.714 0Z"/><path fill="#000" d="M60.315 13h-2.113a4.394 4.394 0 0 0-1.782-2.761 4.776 4.776 0 0 0-1.457-.716 5.82 5.82 0 0 0-1.67-.239c-1.057 0-2.015.267-2.873.801-.852.534-1.53 1.321-2.037 2.361-.5 1.04-.75 2.315-.75 3.827 0 1.511.25 2.787.75 3.826.506 1.04 1.185 1.827 2.037 2.361.858.534 1.816.801 2.873.801.58 0 1.136-.08 1.67-.238a4.888 4.888 0 0 0 1.457-.708 4.477 4.477 0 0 0 1.781-2.77h2.114a7.038 7.038 0 0 1-.869 2.395 6.544 6.544 0 0 1-1.568 1.799 6.867 6.867 0 0 1-2.105 1.116c-.773.256-1.6.384-2.48.384-1.489 0-2.813-.364-3.972-1.091-1.16-.727-2.071-1.762-2.736-3.102-.665-1.341-.997-2.932-.997-4.773 0-1.841.332-3.432.997-4.773.665-1.34 1.577-2.375 2.736-3.102 1.16-.728 2.483-1.091 3.972-1.091.88 0 1.707.128 2.48.383.778.256 1.48.631 2.105 1.125a6.428 6.428 0 0 1 1.568 1.79c.42.699.71 1.497.87 2.395Zm5.154-5.455V25h-2.01V7.545h2.01Zm9.173 17.728c-1.261 0-2.35-.279-3.264-.835-.91-.563-1.611-1.347-2.105-2.353-.489-1.011-.733-2.187-.733-3.528 0-1.341.244-2.523.733-3.546.494-1.028 1.181-1.83 2.062-2.403.887-.58 1.92-.87 3.103-.87.681 0 1.355.114 2.02.341.664.228 1.27.597 1.815 1.108.545.506.98 1.177 1.304 2.012.324.835.486 1.864.486 3.085v.852H69.972v-1.738h8.045c0-.739-.148-1.398-.443-1.977a3.34 3.34 0 0 0-1.245-1.373c-.533-.335-1.164-.502-1.891-.502-.802 0-1.495.198-2.08.596a3.925 3.925 0 0 0-1.338 1.534 4.507 4.507 0 0 0-.469 2.028v1.16c0 .988.17 1.826.511 2.514.347.682.827 1.201 1.44 1.56.615.352 1.328.528 2.14.528.529 0 1.006-.074 1.432-.222.432-.153.804-.38 1.116-.681.313-.307.554-.688.725-1.142l1.943.545a4.309 4.309 0 0 1-1.031 1.738c-.483.495-1.08.881-1.79 1.16-.71.272-1.509.409-2.395.409Zm12.332.034c-.83 0-1.582-.156-2.258-.469a3.876 3.876 0 0 1-1.61-1.372c-.399-.602-.597-1.33-.597-2.182 0-.75.147-1.358.443-1.824.295-.471.69-.84 1.184-1.108a6.224 6.224 0 0 1 1.637-.596 19.926 19.926 0 0 1 1.815-.324c.796-.102 1.44-.18 1.935-.23.5-.057.863-.15 1.09-.282.234-.13.35-.358.35-.681v-.069c0-.84-.23-1.494-.69-1.96-.455-.466-1.145-.699-2.071-.699-.96 0-1.713.21-2.259.631-.545.42-.929.87-1.15 1.347l-1.91-.682c.341-.796.796-1.415 1.364-1.858a5.109 5.109 0 0 1 1.875-.938 7.78 7.78 0 0 1 2.011-.272c.421 0 .904.05 1.45.153a4.635 4.635 0 0 1 1.593.605c.517.307.946.77 1.287 1.39.341.619.511 1.448.511 2.488V25h-2.01v-1.773h-.103c-.137.284-.364.588-.682.912-.318.324-.742.6-1.27.827-.528.227-1.173.34-1.935.34Zm.307-1.807c.796 0 1.466-.156 2.012-.469.55-.312.965-.716 1.244-1.21a3.084 3.084 0 0 0 .426-1.56v-1.84c-.085.102-.273.195-.562.28-.284.08-.614.151-.99.214-.368.057-.73.108-1.082.153-.346.04-.627.074-.843.102a7.678 7.678 0 0 0-1.466.333c-.449.148-.813.372-1.091.673-.273.296-.41.699-.41 1.21 0 .7.26 1.228.776 1.586.523.352 1.185.528 1.986.528Zm11.376-6.375V25h-2.011V11.91h1.943v2.044h.17a3.74 3.74 0 0 1 1.398-1.602c.625-.409 1.432-.613 2.42-.613.887 0 1.662.181 2.327.545.665.358 1.182.903 1.551 1.636.37.728.554 1.648.554 2.762V25h-2.011v-8.182c0-1.028-.267-1.83-.801-2.403-.534-.58-1.267-.87-2.199-.87-.642 0-1.216.14-1.722.418a2.99 2.99 0 0 0-1.184 1.219c-.29.534-.435 1.182-.435 1.943Zm12.3 7.875V7.545h5.898c1.369 0 2.489.248 3.358.742.875.489 1.523 1.15 1.943 1.986.421.835.631 1.767.631 2.795 0 1.029-.21 1.963-.631 2.804-.415.841-1.057 1.512-1.926 2.012-.869.494-1.983.741-3.341.741h-4.227V16.75h4.159c.938 0 1.69-.162 2.259-.486.568-.324.98-.761 1.235-1.312.262-.557.392-1.185.392-1.884 0-.699-.13-1.324-.392-1.875-.255-.551-.67-.983-1.244-1.295-.574-.318-1.335-.478-2.284-.478h-3.716V25h-2.114ZM127.93 7.545V25h-2.011V7.545h2.011Zm7.537 17.762c-.83 0-1.583-.156-2.259-.469a3.88 3.88 0 0 1-1.611-1.372c-.397-.602-.596-1.33-.596-2.182 0-.75.147-1.358.443-1.824a3.12 3.12 0 0 1 1.185-1.108 6.213 6.213 0 0 1 1.636-.596 19.899 19.899 0 0 1 1.815-.324 82.224 82.224 0 0 1 1.935-.23c.5-.057.864-.15 1.091-.282.233-.13.349-.358.349-.681v-.069c0-.84-.23-1.494-.69-1.96-.455-.466-1.145-.699-2.071-.699-.96 0-1.713.21-2.259.631-.545.42-.929.87-1.15 1.347l-1.909-.682c.341-.796.795-1.415 1.363-1.858a5.112 5.112 0 0 1 1.875-.938 7.788 7.788 0 0 1 2.012-.272c.42 0 .903.05 1.449.153a4.63 4.63 0 0 1 1.593.605c.517.307.946.77 1.287 1.39.341.619.512 1.448.512 2.488V25h-2.012v-1.773h-.102c-.136.284-.364.588-.682.912-.318.324-.741.6-1.27.827-.528.227-1.173.34-1.934.34Zm.306-1.807c.796 0 1.466-.156 2.012-.469.551-.312.966-.716 1.244-1.21a3.085 3.085 0 0 0 .426-1.56v-1.84c-.085.102-.272.195-.562.28-.284.08-.614.151-.989.214-.369.057-.73.108-1.082.153-.347.04-.628.074-.844.102a7.682 7.682 0 0 0-1.466.333c-.449.148-.812.372-1.091.673-.273.296-.409.699-.409 1.21 0 .7.259 1.228.776 1.586.522.352 1.184.528 1.985.528Zm15.058-11.59v1.704h-6.784v-1.705h6.784Zm-4.807-3.137h2.012V21.25c0 .568.082.994.247 1.278.17.279.386.466.647.563.267.09.549.136.844.136.222 0 .404-.011.546-.034l.341-.068.409 1.807a4.116 4.116 0 0 1-.571.153 4.21 4.21 0 0 1-.929.085 4.05 4.05 0 0 1-1.671-.366 3.315 3.315 0 0 1-1.346-1.116c-.353-.5-.529-1.131-.529-1.892V8.773Zm13.181 16.5c-1.262 0-2.35-.279-3.265-.835-.909-.563-1.61-1.347-2.105-2.353-.488-1.011-.733-2.187-.733-3.528 0-1.341.245-2.523.733-3.546.495-1.028 1.182-1.83 2.063-2.403.886-.58 1.92-.87 3.102-.87.682 0 1.355.114 2.02.341.665.228 1.27.597 1.815 1.108.546.506.98 1.177 1.304 2.012.324.835.486 1.864.486 3.085v.852h-10.091v-1.738h8.046c0-.739-.148-1.398-.444-1.977a3.332 3.332 0 0 0-1.244-1.373c-.534-.335-1.165-.502-1.892-.502-.801 0-1.494.198-2.08.596a3.933 3.933 0 0 0-1.338 1.534 4.513 4.513 0 0 0-.468 2.028v1.16c0 .988.17 1.826.511 2.514.347.682.827 1.201 1.44 1.56.614.352 1.327.528 2.14.528a4.35 4.35 0 0 0 1.431-.222 3.07 3.07 0 0 0 1.117-.681c.312-.307.554-.688.724-1.142l1.943.545a4.301 4.301 0 0 1-1.031 1.738 5.02 5.02 0 0 1-1.79 1.16c-.71.272-1.508.409-2.394.409Z"/></svg>