<svg xmlns="http://www.w3.org/2000/svg" width="64" height="64" fill="none"><path fill="#222" d="M61.543 19.703A32 32 0 1 1 31.989 0c4.23-.012 8.42.828 12.32 2.469a2.286 2.286 0 0 1 1.234 2.994 2.286 2.286 0 0 1-2.994 1.211A27.429 27.429 0 1 0 57.314 21.44a2.285 2.285 0 1 1 4.229-1.737ZM43.417 9.143a6.857 6.857 0 0 0 6.857-6.857 2.286 2.286 0 0 1 4.572 0 6.857 6.857 0 0 0 6.857 6.857 2.286 2.286 0 1 1 0 4.571 6.857 6.857 0 0 0-6.857 6.857 2.286 2.286 0 1 1-4.572 0 6.857 6.857 0 0 0-6.857-6.857 2.285 2.285 0 1 1 0-4.571Zm6.857 2.286c.867.65 1.636 1.42 2.286 2.285.65-.866 1.42-1.636 2.286-2.285a11.433 11.433 0 0 1-2.286-2.286c-.65.866-1.42 1.636-2.286 2.286Zm0 20.571a18.286 18.286 0 1 1-36.572 0 18.286 18.286 0 0 1 36.572 0Zm-4.571 0a13.715 13.715 0 1 0-27.43 0 13.715 13.715 0 0 0 27.43 0Z"/></svg>